<mxfile host="app.diagrams.net" modified="2024-04-14T19:52:48.850Z" agent="Mozilla/5.0 (Windows NT 10.0; Win64; x64) AppleWebKit/537.36 (KHTML, like Gecko) Chrome/123.0.0.0 Safari/537.36 Edg/123.0.0.0" etag="LFv5FZwtiaJG2sqGZcON" version="24.2.3" type="device">
  <diagram name="Page-1" id="3RMhyUE1jzQtk5cUU0Ln">
    <mxGraphModel dx="1805" dy="438" grid="1" gridSize="10" guides="1" tooltips="1" connect="1" arrows="1" fold="1" page="1" pageScale="1" pageWidth="850" pageHeight="1100" math="0" shadow="0">
      <root>
        <mxCell id="0" />
        <mxCell id="1" parent="0" />
        <mxCell id="AyHtlCkVcT6NiHZTZ-Vk-50" value="AUTHOR" style="whiteSpace=wrap;html=1;align=center;" parent="1" vertex="1">
          <mxGeometry x="120" y="320" width="100" height="40" as="geometry" />
        </mxCell>
        <mxCell id="AyHtlCkVcT6NiHZTZ-Vk-51" value="GENRE" style="whiteSpace=wrap;html=1;align=center;" parent="1" vertex="1">
          <mxGeometry x="360" y="320" width="100" height="40" as="geometry" />
        </mxCell>
        <mxCell id="AyHtlCkVcT6NiHZTZ-Vk-52" value="CATALOG" style="whiteSpace=wrap;html=1;align=center;" parent="1" vertex="1">
          <mxGeometry x="580" y="320" width="100" height="40" as="geometry" />
        </mxCell>
        <mxCell id="AyHtlCkVcT6NiHZTZ-Vk-54" value="MATERIAL" style="whiteSpace=wrap;html=1;align=center;" parent="1" vertex="1">
          <mxGeometry x="360" y="630" width="100" height="40" as="geometry" />
        </mxCell>
        <mxCell id="AyHtlCkVcT6NiHZTZ-Vk-55" value="BORROW" style="whiteSpace=wrap;html=1;align=center;" parent="1" vertex="1">
          <mxGeometry x="360" y="840" width="100" height="40" as="geometry" />
        </mxCell>
        <mxCell id="AyHtlCkVcT6NiHZTZ-Vk-56" value="STAFF" style="whiteSpace=wrap;html=1;align=center;" parent="1" vertex="1">
          <mxGeometry x="10" y="840" width="100" height="40" as="geometry" />
        </mxCell>
        <mxCell id="AyHtlCkVcT6NiHZTZ-Vk-57" value="MEMBER" style="whiteSpace=wrap;html=1;align=center;" parent="1" vertex="1">
          <mxGeometry x="680" y="840" width="100" height="40" as="geometry" />
        </mxCell>
        <mxCell id="AyHtlCkVcT6NiHZTZ-Vk-58" value="BELONG_TO" style="shape=rhombus;perimeter=rhombusPerimeter;whiteSpace=wrap;html=1;align=center;" parent="1" vertex="1">
          <mxGeometry x="350" y="470" width="120" height="60" as="geometry" />
        </mxCell>
        <mxCell id="AyHtlCkVcT6NiHZTZ-Vk-59" value="BASED" style="shape=rhombus;perimeter=rhombusPerimeter;whiteSpace=wrap;html=1;align=center;" parent="1" vertex="1">
          <mxGeometry x="570" y="480" width="120" height="60" as="geometry" />
        </mxCell>
        <mxCell id="AyHtlCkVcT6NiHZTZ-Vk-60" value="PROCESS" style="shape=rhombus;perimeter=rhombusPerimeter;whiteSpace=wrap;html=1;align=center;" parent="1" vertex="1">
          <mxGeometry x="180" y="830" width="120" height="60" as="geometry" />
        </mxCell>
        <mxCell id="AyHtlCkVcT6NiHZTZ-Vk-61" value="CAN" style="shape=rhombus;perimeter=rhombusPerimeter;whiteSpace=wrap;html=1;align=center;" parent="1" vertex="1">
          <mxGeometry x="520" y="830" width="120" height="60" as="geometry" />
        </mxCell>
        <mxCell id="AyHtlCkVcT6NiHZTZ-Vk-66" value="" style="endArrow=none;html=1;rounded=0;exitX=0.5;exitY=1;exitDx=0;exitDy=0;entryX=0.5;entryY=0;entryDx=0;entryDy=0;" parent="1" source="AyHtlCkVcT6NiHZTZ-Vk-52" target="AyHtlCkVcT6NiHZTZ-Vk-59" edge="1">
          <mxGeometry relative="1" as="geometry">
            <mxPoint x="330" y="630" as="sourcePoint" />
            <mxPoint x="490" y="630" as="targetPoint" />
          </mxGeometry>
        </mxCell>
        <mxCell id="AyHtlCkVcT6NiHZTZ-Vk-67" value="1" style="resizable=0;html=1;whiteSpace=wrap;align=right;verticalAlign=bottom;" parent="AyHtlCkVcT6NiHZTZ-Vk-66" connectable="0" vertex="1">
          <mxGeometry x="1" relative="1" as="geometry">
            <mxPoint x="-10" y="-20" as="offset" />
          </mxGeometry>
        </mxCell>
        <mxCell id="AyHtlCkVcT6NiHZTZ-Vk-68" value="" style="shape=link;html=1;rounded=0;entryX=0.5;entryY=1;entryDx=0;entryDy=0;exitX=1;exitY=0.5;exitDx=0;exitDy=0;" parent="1" source="AyHtlCkVcT6NiHZTZ-Vk-54" target="AyHtlCkVcT6NiHZTZ-Vk-59" edge="1">
          <mxGeometry relative="1" as="geometry">
            <mxPoint x="330" y="630" as="sourcePoint" />
            <mxPoint x="490" y="630" as="targetPoint" />
          </mxGeometry>
        </mxCell>
        <mxCell id="AyHtlCkVcT6NiHZTZ-Vk-69" value="N" style="resizable=0;html=1;whiteSpace=wrap;align=right;verticalAlign=bottom;" parent="AyHtlCkVcT6NiHZTZ-Vk-68" connectable="0" vertex="1">
          <mxGeometry x="1" relative="1" as="geometry">
            <mxPoint x="-10" y="30" as="offset" />
          </mxGeometry>
        </mxCell>
        <mxCell id="AyHtlCkVcT6NiHZTZ-Vk-70" value="NEEDS_TO" style="shape=rhombus;perimeter=rhombusPerimeter;whiteSpace=wrap;html=1;align=center;" parent="1" vertex="1">
          <mxGeometry x="350" y="750" width="120" height="60" as="geometry" />
        </mxCell>
        <mxCell id="AyHtlCkVcT6NiHZTZ-Vk-76" value="" style="shape=link;html=1;rounded=0;exitX=0.5;exitY=1;exitDx=0;exitDy=0;entryX=0.5;entryY=0;entryDx=0;entryDy=0;" parent="1" source="AyHtlCkVcT6NiHZTZ-Vk-58" target="AyHtlCkVcT6NiHZTZ-Vk-54" edge="1">
          <mxGeometry relative="1" as="geometry">
            <mxPoint x="330" y="630" as="sourcePoint" />
            <mxPoint x="490" y="630" as="targetPoint" />
          </mxGeometry>
        </mxCell>
        <mxCell id="AyHtlCkVcT6NiHZTZ-Vk-77" value="N" style="resizable=0;html=1;whiteSpace=wrap;align=right;verticalAlign=bottom;" parent="AyHtlCkVcT6NiHZTZ-Vk-76" connectable="0" vertex="1">
          <mxGeometry x="1" relative="1" as="geometry">
            <mxPoint x="-10" y="-20" as="offset" />
          </mxGeometry>
        </mxCell>
        <mxCell id="AyHtlCkVcT6NiHZTZ-Vk-86" value="" style="endArrow=none;html=1;rounded=0;entryX=0;entryY=0.5;entryDx=0;entryDy=0;exitX=1;exitY=0.5;exitDx=0;exitDy=0;" parent="1" source="AyHtlCkVcT6NiHZTZ-Vk-61" target="AyHtlCkVcT6NiHZTZ-Vk-57" edge="1">
          <mxGeometry relative="1" as="geometry">
            <mxPoint x="330" y="680" as="sourcePoint" />
            <mxPoint x="490" y="680" as="targetPoint" />
          </mxGeometry>
        </mxCell>
        <mxCell id="AyHtlCkVcT6NiHZTZ-Vk-87" value="1" style="resizable=0;html=1;whiteSpace=wrap;align=right;verticalAlign=bottom;" parent="AyHtlCkVcT6NiHZTZ-Vk-86" connectable="0" vertex="1">
          <mxGeometry x="1" relative="1" as="geometry">
            <mxPoint x="-10" as="offset" />
          </mxGeometry>
        </mxCell>
        <mxCell id="AyHtlCkVcT6NiHZTZ-Vk-90" value="" style="shape=link;html=1;rounded=0;entryX=0;entryY=0.5;entryDx=0;entryDy=0;exitX=1;exitY=0.5;exitDx=0;exitDy=0;" parent="1" source="AyHtlCkVcT6NiHZTZ-Vk-60" target="AyHtlCkVcT6NiHZTZ-Vk-55" edge="1">
          <mxGeometry relative="1" as="geometry">
            <mxPoint x="330" y="680" as="sourcePoint" />
            <mxPoint x="490" y="680" as="targetPoint" />
          </mxGeometry>
        </mxCell>
        <mxCell id="AyHtlCkVcT6NiHZTZ-Vk-91" value="N" style="resizable=0;html=1;whiteSpace=wrap;align=right;verticalAlign=bottom;" parent="AyHtlCkVcT6NiHZTZ-Vk-90" connectable="0" vertex="1">
          <mxGeometry x="1" relative="1" as="geometry" />
        </mxCell>
        <mxCell id="AyHtlCkVcT6NiHZTZ-Vk-96" value="AUTHOR_ID" style="ellipse;whiteSpace=wrap;html=1;align=center;fontStyle=4;" parent="1" vertex="1">
          <mxGeometry x="-80" y="240" width="100" height="40" as="geometry" />
        </mxCell>
        <mxCell id="AyHtlCkVcT6NiHZTZ-Vk-97" value="NAME" style="ellipse;whiteSpace=wrap;html=1;align=center;" parent="1" vertex="1">
          <mxGeometry x="-90" y="320" width="100" height="40" as="geometry" />
        </mxCell>
        <mxCell id="AyHtlCkVcT6NiHZTZ-Vk-98" value="BIRTH_DATE" style="ellipse;whiteSpace=wrap;html=1;align=center;" parent="1" vertex="1">
          <mxGeometry x="-70" y="180" width="100" height="40" as="geometry" />
        </mxCell>
        <mxCell id="AyHtlCkVcT6NiHZTZ-Vk-99" value="NATIONALITY" style="ellipse;whiteSpace=wrap;html=1;align=center;" parent="1" vertex="1">
          <mxGeometry x="120" y="210" width="100" height="40" as="geometry" />
        </mxCell>
        <mxCell id="AyHtlCkVcT6NiHZTZ-Vk-100" value="" style="endArrow=none;html=1;rounded=0;exitX=1;exitY=0.5;exitDx=0;exitDy=0;entryX=0;entryY=0.5;entryDx=0;entryDy=0;" parent="1" source="AyHtlCkVcT6NiHZTZ-Vk-97" target="AyHtlCkVcT6NiHZTZ-Vk-50" edge="1">
          <mxGeometry relative="1" as="geometry">
            <mxPoint x="290" y="450" as="sourcePoint" />
            <mxPoint x="150" y="360" as="targetPoint" />
          </mxGeometry>
        </mxCell>
        <mxCell id="AyHtlCkVcT6NiHZTZ-Vk-104" value="GENRE_ID" style="ellipse;whiteSpace=wrap;html=1;align=center;fontStyle=4;" parent="1" vertex="1">
          <mxGeometry x="360" y="200" width="100" height="40" as="geometry" />
        </mxCell>
        <mxCell id="AyHtlCkVcT6NiHZTZ-Vk-105" value="NAME" style="ellipse;whiteSpace=wrap;html=1;align=center;" parent="1" vertex="1">
          <mxGeometry x="240" y="250" width="100" height="40" as="geometry" />
        </mxCell>
        <mxCell id="AyHtlCkVcT6NiHZTZ-Vk-109" value="" style="endArrow=none;html=1;rounded=0;exitX=0;exitY=0;exitDx=0;exitDy=0;entryX=1;entryY=1;entryDx=0;entryDy=0;" parent="1" source="AyHtlCkVcT6NiHZTZ-Vk-50" target="AyHtlCkVcT6NiHZTZ-Vk-96" edge="1">
          <mxGeometry relative="1" as="geometry">
            <mxPoint x="340" y="460" as="sourcePoint" />
            <mxPoint x="500" y="460" as="targetPoint" />
          </mxGeometry>
        </mxCell>
        <mxCell id="AyHtlCkVcT6NiHZTZ-Vk-112" value="" style="endArrow=none;html=1;rounded=0;exitX=0.5;exitY=1;exitDx=0;exitDy=0;entryX=0.5;entryY=0;entryDx=0;entryDy=0;" parent="1" source="AyHtlCkVcT6NiHZTZ-Vk-99" target="AyHtlCkVcT6NiHZTZ-Vk-50" edge="1">
          <mxGeometry relative="1" as="geometry">
            <mxPoint x="340" y="460" as="sourcePoint" />
            <mxPoint x="500" y="460" as="targetPoint" />
          </mxGeometry>
        </mxCell>
        <mxCell id="AyHtlCkVcT6NiHZTZ-Vk-113" value="" style="endArrow=none;html=1;rounded=0;exitX=1;exitY=1;exitDx=0;exitDy=0;entryX=0.25;entryY=0;entryDx=0;entryDy=0;" parent="1" source="AyHtlCkVcT6NiHZTZ-Vk-98" target="AyHtlCkVcT6NiHZTZ-Vk-50" edge="1">
          <mxGeometry relative="1" as="geometry">
            <mxPoint x="170" y="350" as="sourcePoint" />
            <mxPoint x="330" y="350" as="targetPoint" />
          </mxGeometry>
        </mxCell>
        <mxCell id="AyHtlCkVcT6NiHZTZ-Vk-114" value="DESCRIPTION" style="ellipse;whiteSpace=wrap;html=1;align=center;" parent="1" vertex="1">
          <mxGeometry x="440" y="250" width="100" height="40" as="geometry" />
        </mxCell>
        <mxCell id="AyHtlCkVcT6NiHZTZ-Vk-116" value="" style="endArrow=none;html=1;rounded=0;exitX=0.5;exitY=1;exitDx=0;exitDy=0;entryX=0;entryY=0;entryDx=0;entryDy=0;" parent="1" source="AyHtlCkVcT6NiHZTZ-Vk-105" target="AyHtlCkVcT6NiHZTZ-Vk-51" edge="1">
          <mxGeometry relative="1" as="geometry">
            <mxPoint x="160" y="350" as="sourcePoint" />
            <mxPoint x="320" y="350" as="targetPoint" />
          </mxGeometry>
        </mxCell>
        <mxCell id="AyHtlCkVcT6NiHZTZ-Vk-117" value="" style="endArrow=none;html=1;rounded=0;entryX=0.5;entryY=1;entryDx=0;entryDy=0;exitX=0.5;exitY=0;exitDx=0;exitDy=0;" parent="1" source="AyHtlCkVcT6NiHZTZ-Vk-51" target="AyHtlCkVcT6NiHZTZ-Vk-104" edge="1">
          <mxGeometry relative="1" as="geometry">
            <mxPoint x="160" y="350" as="sourcePoint" />
            <mxPoint x="320" y="350" as="targetPoint" />
          </mxGeometry>
        </mxCell>
        <mxCell id="AyHtlCkVcT6NiHZTZ-Vk-118" value="" style="endArrow=none;html=1;rounded=0;entryX=0.75;entryY=0;entryDx=0;entryDy=0;exitX=0;exitY=1;exitDx=0;exitDy=0;" parent="1" source="AyHtlCkVcT6NiHZTZ-Vk-114" target="AyHtlCkVcT6NiHZTZ-Vk-51" edge="1">
          <mxGeometry relative="1" as="geometry">
            <mxPoint x="160" y="350" as="sourcePoint" />
            <mxPoint x="320" y="350" as="targetPoint" />
          </mxGeometry>
        </mxCell>
        <mxCell id="AyHtlCkVcT6NiHZTZ-Vk-119" value="CATALOG_ID" style="ellipse;whiteSpace=wrap;html=1;align=center;fontStyle=4;" parent="1" vertex="1">
          <mxGeometry x="780" y="210" width="100" height="40" as="geometry" />
        </mxCell>
        <mxCell id="AyHtlCkVcT6NiHZTZ-Vk-120" value="LOCATION" style="ellipse;whiteSpace=wrap;html=1;align=center;" parent="1" vertex="1">
          <mxGeometry x="780" y="320" width="100" height="40" as="geometry" />
        </mxCell>
        <mxCell id="AyHtlCkVcT6NiHZTZ-Vk-121" value="NAME" style="ellipse;whiteSpace=wrap;html=1;align=center;" parent="1" vertex="1">
          <mxGeometry x="580" y="210" width="100" height="40" as="geometry" />
        </mxCell>
        <mxCell id="AyHtlCkVcT6NiHZTZ-Vk-122" value="" style="endArrow=none;html=1;rounded=0;entryX=0.5;entryY=1;entryDx=0;entryDy=0;exitX=0.5;exitY=0;exitDx=0;exitDy=0;" parent="1" source="AyHtlCkVcT6NiHZTZ-Vk-52" target="AyHtlCkVcT6NiHZTZ-Vk-121" edge="1">
          <mxGeometry relative="1" as="geometry">
            <mxPoint x="350" y="400" as="sourcePoint" />
            <mxPoint x="510" y="400" as="targetPoint" />
          </mxGeometry>
        </mxCell>
        <mxCell id="AyHtlCkVcT6NiHZTZ-Vk-123" value="" style="endArrow=none;html=1;rounded=0;entryX=1;entryY=0;entryDx=0;entryDy=0;exitX=0;exitY=1;exitDx=0;exitDy=0;" parent="1" source="AyHtlCkVcT6NiHZTZ-Vk-119" target="AyHtlCkVcT6NiHZTZ-Vk-52" edge="1">
          <mxGeometry relative="1" as="geometry">
            <mxPoint x="350" y="400" as="sourcePoint" />
            <mxPoint x="510" y="400" as="targetPoint" />
          </mxGeometry>
        </mxCell>
        <mxCell id="AyHtlCkVcT6NiHZTZ-Vk-124" value="" style="endArrow=none;html=1;rounded=0;entryX=1;entryY=0.5;entryDx=0;entryDy=0;exitX=0;exitY=0.5;exitDx=0;exitDy=0;" parent="1" source="AyHtlCkVcT6NiHZTZ-Vk-120" target="AyHtlCkVcT6NiHZTZ-Vk-52" edge="1">
          <mxGeometry relative="1" as="geometry">
            <mxPoint x="350" y="400" as="sourcePoint" />
            <mxPoint x="510" y="400" as="targetPoint" />
          </mxGeometry>
        </mxCell>
        <mxCell id="AyHtlCkVcT6NiHZTZ-Vk-127" value="MATERIAL_ID" style="ellipse;whiteSpace=wrap;html=1;align=center;fontStyle=4;" parent="1" vertex="1">
          <mxGeometry x="270" y="550" width="100" height="40" as="geometry" />
        </mxCell>
        <mxCell id="AyHtlCkVcT6NiHZTZ-Vk-128" value="TITLE" style="ellipse;whiteSpace=wrap;html=1;align=center;" parent="1" vertex="1">
          <mxGeometry x="440" y="550" width="100" height="40" as="geometry" />
        </mxCell>
        <mxCell id="AyHtlCkVcT6NiHZTZ-Vk-129" value="PUBLICATION_DATE" style="ellipse;whiteSpace=wrap;html=1;align=center;" parent="1" vertex="1">
          <mxGeometry x="170" y="670" width="130" height="50" as="geometry" />
        </mxCell>
        <mxCell id="AyHtlCkVcT6NiHZTZ-Vk-130" value="" style="endArrow=none;html=1;rounded=0;entryX=0.25;entryY=0;entryDx=0;entryDy=0;" parent="1" target="AyHtlCkVcT6NiHZTZ-Vk-54" edge="1">
          <mxGeometry relative="1" as="geometry">
            <mxPoint x="340" y="590" as="sourcePoint" />
            <mxPoint x="410" y="490" as="targetPoint" />
          </mxGeometry>
        </mxCell>
        <mxCell id="AyHtlCkVcT6NiHZTZ-Vk-131" value="" style="endArrow=none;html=1;rounded=0;entryX=0.25;entryY=1;entryDx=0;entryDy=0;exitX=1;exitY=0.5;exitDx=0;exitDy=0;" parent="1" source="AyHtlCkVcT6NiHZTZ-Vk-129" target="AyHtlCkVcT6NiHZTZ-Vk-54" edge="1">
          <mxGeometry relative="1" as="geometry">
            <mxPoint x="250" y="490" as="sourcePoint" />
            <mxPoint x="410" y="490" as="targetPoint" />
          </mxGeometry>
        </mxCell>
        <mxCell id="AyHtlCkVcT6NiHZTZ-Vk-132" value="" style="endArrow=none;html=1;rounded=0;entryX=0;entryY=1;entryDx=0;entryDy=0;exitX=0.75;exitY=0;exitDx=0;exitDy=0;" parent="1" source="AyHtlCkVcT6NiHZTZ-Vk-54" target="AyHtlCkVcT6NiHZTZ-Vk-128" edge="1">
          <mxGeometry relative="1" as="geometry">
            <mxPoint x="250" y="490" as="sourcePoint" />
            <mxPoint x="410" y="490" as="targetPoint" />
          </mxGeometry>
        </mxCell>
        <mxCell id="AyHtlCkVcT6NiHZTZ-Vk-133" value="STAFF_ID" style="ellipse;whiteSpace=wrap;html=1;align=center;fontStyle=4;" parent="1" vertex="1">
          <mxGeometry x="-200" y="840" width="100" height="40" as="geometry" />
        </mxCell>
        <mxCell id="AyHtlCkVcT6NiHZTZ-Vk-135" value="HIRE_DATE" style="ellipse;whiteSpace=wrap;html=1;align=center;" parent="1" vertex="1">
          <mxGeometry x="10" y="740" width="100" height="40" as="geometry" />
        </mxCell>
        <mxCell id="AyHtlCkVcT6NiHZTZ-Vk-136" value="JOB_TITLE" style="ellipse;whiteSpace=wrap;html=1;align=center;" parent="1" vertex="1">
          <mxGeometry x="-180" y="750" width="100" height="40" as="geometry" />
        </mxCell>
        <mxCell id="AyHtlCkVcT6NiHZTZ-Vk-137" value="NAME" style="ellipse;whiteSpace=wrap;html=1;align=center;" parent="1" vertex="1">
          <mxGeometry x="-180" y="920" width="100" height="40" as="geometry" />
        </mxCell>
        <mxCell id="AyHtlCkVcT6NiHZTZ-Vk-139" value="CONTACT_INFO" style="ellipse;whiteSpace=wrap;html=1;align=center;" parent="1" vertex="1">
          <mxGeometry x="-50" y="950" width="100" height="40" as="geometry" />
        </mxCell>
        <mxCell id="AyHtlCkVcT6NiHZTZ-Vk-142" value="" style="endArrow=none;html=1;rounded=0;exitX=0.5;exitY=1;exitDx=0;exitDy=0;entryX=0.5;entryY=0;entryDx=0;entryDy=0;" parent="1" source="AyHtlCkVcT6NiHZTZ-Vk-135" target="AyHtlCkVcT6NiHZTZ-Vk-56" edge="1">
          <mxGeometry relative="1" as="geometry">
            <mxPoint x="300" y="790" as="sourcePoint" />
            <mxPoint x="460" y="790" as="targetPoint" />
          </mxGeometry>
        </mxCell>
        <mxCell id="AyHtlCkVcT6NiHZTZ-Vk-143" value="" style="endArrow=none;html=1;rounded=0;entryX=0;entryY=0;entryDx=0;entryDy=0;exitX=1;exitY=1;exitDx=0;exitDy=0;" parent="1" source="AyHtlCkVcT6NiHZTZ-Vk-136" target="AyHtlCkVcT6NiHZTZ-Vk-56" edge="1">
          <mxGeometry relative="1" as="geometry">
            <mxPoint x="300" y="790" as="sourcePoint" />
            <mxPoint x="460" y="790" as="targetPoint" />
          </mxGeometry>
        </mxCell>
        <mxCell id="AyHtlCkVcT6NiHZTZ-Vk-144" value="" style="endArrow=none;html=1;rounded=0;entryX=0;entryY=0.5;entryDx=0;entryDy=0;exitX=1;exitY=0.5;exitDx=0;exitDy=0;" parent="1" source="AyHtlCkVcT6NiHZTZ-Vk-133" target="AyHtlCkVcT6NiHZTZ-Vk-56" edge="1">
          <mxGeometry relative="1" as="geometry">
            <mxPoint x="300" y="790" as="sourcePoint" />
            <mxPoint x="460" y="790" as="targetPoint" />
          </mxGeometry>
        </mxCell>
        <mxCell id="AyHtlCkVcT6NiHZTZ-Vk-145" value="" style="endArrow=none;html=1;rounded=0;entryX=0;entryY=1;entryDx=0;entryDy=0;exitX=1;exitY=0.5;exitDx=0;exitDy=0;" parent="1" source="AyHtlCkVcT6NiHZTZ-Vk-137" target="AyHtlCkVcT6NiHZTZ-Vk-56" edge="1">
          <mxGeometry relative="1" as="geometry">
            <mxPoint x="300" y="790" as="sourcePoint" />
            <mxPoint x="460" y="790" as="targetPoint" />
          </mxGeometry>
        </mxCell>
        <mxCell id="AyHtlCkVcT6NiHZTZ-Vk-146" value="" style="endArrow=none;html=1;rounded=0;entryX=0.5;entryY=1;entryDx=0;entryDy=0;exitX=0.5;exitY=0;exitDx=0;exitDy=0;" parent="1" source="AyHtlCkVcT6NiHZTZ-Vk-139" target="AyHtlCkVcT6NiHZTZ-Vk-56" edge="1">
          <mxGeometry relative="1" as="geometry">
            <mxPoint x="300" y="790" as="sourcePoint" />
            <mxPoint x="460" y="790" as="targetPoint" />
          </mxGeometry>
        </mxCell>
        <mxCell id="AyHtlCkVcT6NiHZTZ-Vk-147" value="MEMBER_ID" style="ellipse;whiteSpace=wrap;html=1;align=center;fontStyle=4;" parent="1" vertex="1">
          <mxGeometry x="890" y="840" width="100" height="40" as="geometry" />
        </mxCell>
        <mxCell id="AyHtlCkVcT6NiHZTZ-Vk-148" value="NAME" style="ellipse;whiteSpace=wrap;html=1;align=center;" parent="1" vertex="1">
          <mxGeometry x="680" y="750" width="100" height="40" as="geometry" />
        </mxCell>
        <mxCell id="AyHtlCkVcT6NiHZTZ-Vk-149" value="CONTACT_INFO" style="ellipse;whiteSpace=wrap;html=1;align=center;" parent="1" vertex="1">
          <mxGeometry x="890" y="940" width="100" height="40" as="geometry" />
        </mxCell>
        <mxCell id="AyHtlCkVcT6NiHZTZ-Vk-150" value="JOIN_DATE" style="ellipse;whiteSpace=wrap;html=1;align=center;" parent="1" vertex="1">
          <mxGeometry x="710" y="960" width="100" height="40" as="geometry" />
        </mxCell>
        <mxCell id="AyHtlCkVcT6NiHZTZ-Vk-153" value="" style="endArrow=none;html=1;rounded=0;entryX=0.5;entryY=1;entryDx=0;entryDy=0;exitX=0.5;exitY=0;exitDx=0;exitDy=0;" parent="1" source="AyHtlCkVcT6NiHZTZ-Vk-57" target="AyHtlCkVcT6NiHZTZ-Vk-148" edge="1">
          <mxGeometry relative="1" as="geometry">
            <mxPoint x="470" y="790" as="sourcePoint" />
            <mxPoint x="630" y="790" as="targetPoint" />
          </mxGeometry>
        </mxCell>
        <mxCell id="AyHtlCkVcT6NiHZTZ-Vk-154" value="" style="endArrow=none;html=1;rounded=0;entryX=1;entryY=0.5;entryDx=0;entryDy=0;exitX=0;exitY=0.5;exitDx=0;exitDy=0;" parent="1" source="AyHtlCkVcT6NiHZTZ-Vk-147" target="AyHtlCkVcT6NiHZTZ-Vk-57" edge="1">
          <mxGeometry relative="1" as="geometry">
            <mxPoint x="470" y="790" as="sourcePoint" />
            <mxPoint x="630" y="790" as="targetPoint" />
          </mxGeometry>
        </mxCell>
        <mxCell id="AyHtlCkVcT6NiHZTZ-Vk-155" value="" style="endArrow=none;html=1;rounded=0;entryX=0;entryY=0;entryDx=0;entryDy=0;exitX=0.75;exitY=1;exitDx=0;exitDy=0;" parent="1" source="AyHtlCkVcT6NiHZTZ-Vk-57" target="AyHtlCkVcT6NiHZTZ-Vk-149" edge="1">
          <mxGeometry relative="1" as="geometry">
            <mxPoint x="470" y="790" as="sourcePoint" />
            <mxPoint x="630" y="790" as="targetPoint" />
          </mxGeometry>
        </mxCell>
        <mxCell id="AyHtlCkVcT6NiHZTZ-Vk-156" value="" style="endArrow=none;html=1;rounded=0;entryX=0.5;entryY=0;entryDx=0;entryDy=0;exitX=0.25;exitY=1;exitDx=0;exitDy=0;" parent="1" source="AyHtlCkVcT6NiHZTZ-Vk-57" target="AyHtlCkVcT6NiHZTZ-Vk-150" edge="1">
          <mxGeometry relative="1" as="geometry">
            <mxPoint x="470" y="790" as="sourcePoint" />
            <mxPoint x="630" y="790" as="targetPoint" />
          </mxGeometry>
        </mxCell>
        <mxCell id="AyHtlCkVcT6NiHZTZ-Vk-157" value="BORROW_ID" style="ellipse;whiteSpace=wrap;html=1;align=center;fontStyle=4;" parent="1" vertex="1">
          <mxGeometry x="360" y="990" width="100" height="40" as="geometry" />
        </mxCell>
        <mxCell id="AyHtlCkVcT6NiHZTZ-Vk-158" value="RETURN_DATE" style="ellipse;whiteSpace=wrap;html=1;align=center;" parent="1" vertex="1">
          <mxGeometry x="210" y="990" width="100" height="40" as="geometry" />
        </mxCell>
        <mxCell id="AyHtlCkVcT6NiHZTZ-Vk-159" value="BORROW_DATE" style="ellipse;whiteSpace=wrap;html=1;align=center;" parent="1" vertex="1">
          <mxGeometry x="490" y="990" width="100" height="40" as="geometry" />
        </mxCell>
        <mxCell id="AyHtlCkVcT6NiHZTZ-Vk-160" value="DUE_DATE" style="ellipse;whiteSpace=wrap;html=1;align=center;" parent="1" vertex="1">
          <mxGeometry x="510" y="740" width="100" height="40" as="geometry" />
        </mxCell>
        <mxCell id="AyHtlCkVcT6NiHZTZ-Vk-161" value="" style="endArrow=none;html=1;rounded=0;entryX=0;entryY=1;entryDx=0;entryDy=0;exitX=1;exitY=0;exitDx=0;exitDy=0;" parent="1" source="AyHtlCkVcT6NiHZTZ-Vk-55" target="AyHtlCkVcT6NiHZTZ-Vk-160" edge="1">
          <mxGeometry relative="1" as="geometry">
            <mxPoint x="350" y="740" as="sourcePoint" />
            <mxPoint x="510" y="740" as="targetPoint" />
          </mxGeometry>
        </mxCell>
        <mxCell id="AyHtlCkVcT6NiHZTZ-Vk-162" value="" style="endArrow=none;html=1;rounded=0;entryX=0.5;entryY=0;entryDx=0;entryDy=0;" parent="1" target="AyHtlCkVcT6NiHZTZ-Vk-159" edge="1">
          <mxGeometry relative="1" as="geometry">
            <mxPoint x="460" y="880" as="sourcePoint" />
            <mxPoint x="510" y="740" as="targetPoint" />
          </mxGeometry>
        </mxCell>
        <mxCell id="AyHtlCkVcT6NiHZTZ-Vk-163" value="" style="endArrow=none;html=1;rounded=0;entryX=0.5;entryY=0;entryDx=0;entryDy=0;" parent="1" source="AyHtlCkVcT6NiHZTZ-Vk-55" target="AyHtlCkVcT6NiHZTZ-Vk-157" edge="1">
          <mxGeometry relative="1" as="geometry">
            <mxPoint x="350" y="740" as="sourcePoint" />
            <mxPoint x="510" y="740" as="targetPoint" />
          </mxGeometry>
        </mxCell>
        <mxCell id="AyHtlCkVcT6NiHZTZ-Vk-164" value="" style="endArrow=none;html=1;rounded=0;entryX=0.5;entryY=0;entryDx=0;entryDy=0;exitX=0;exitY=1;exitDx=0;exitDy=0;" parent="1" source="AyHtlCkVcT6NiHZTZ-Vk-55" target="AyHtlCkVcT6NiHZTZ-Vk-158" edge="1">
          <mxGeometry relative="1" as="geometry">
            <mxPoint x="350" y="740" as="sourcePoint" />
            <mxPoint x="510" y="740" as="targetPoint" />
          </mxGeometry>
        </mxCell>
        <mxCell id="AyHtlCkVcT6NiHZTZ-Vk-173" value="" style="shape=link;html=1;rounded=0;entryX=0.5;entryY=1;entryDx=0;entryDy=0;exitX=0.5;exitY=0;exitDx=0;exitDy=0;" parent="1" edge="1">
          <mxGeometry relative="1" as="geometry">
            <mxPoint x="170" y="570" as="sourcePoint" />
            <mxPoint x="170" y="570" as="targetPoint" />
          </mxGeometry>
        </mxCell>
        <mxCell id="AyHtlCkVcT6NiHZTZ-Vk-180" value="" style="endArrow=none;html=1;rounded=0;entryX=0.5;entryY=1;entryDx=0;entryDy=0;exitX=0.5;exitY=0;exitDx=0;exitDy=0;" parent="1" source="AyHtlCkVcT6NiHZTZ-Vk-70" target="AyHtlCkVcT6NiHZTZ-Vk-54" edge="1">
          <mxGeometry relative="1" as="geometry">
            <mxPoint x="270" y="680" as="sourcePoint" />
            <mxPoint x="430" y="680" as="targetPoint" />
          </mxGeometry>
        </mxCell>
        <mxCell id="AyHtlCkVcT6NiHZTZ-Vk-181" value="1" style="resizable=0;html=1;whiteSpace=wrap;align=right;verticalAlign=bottom;" parent="AyHtlCkVcT6NiHZTZ-Vk-180" connectable="0" vertex="1">
          <mxGeometry x="1" relative="1" as="geometry">
            <mxPoint y="20" as="offset" />
          </mxGeometry>
        </mxCell>
        <mxCell id="AyHtlCkVcT6NiHZTZ-Vk-182" value="" style="shape=link;html=1;rounded=0;entryX=0.5;entryY=1;entryDx=0;entryDy=0;exitX=0.5;exitY=0;exitDx=0;exitDy=0;" parent="1" source="AyHtlCkVcT6NiHZTZ-Vk-55" target="AyHtlCkVcT6NiHZTZ-Vk-70" edge="1">
          <mxGeometry relative="1" as="geometry">
            <mxPoint x="280" y="720" as="sourcePoint" />
            <mxPoint x="440" y="720" as="targetPoint" />
          </mxGeometry>
        </mxCell>
        <mxCell id="AyHtlCkVcT6NiHZTZ-Vk-183" value="N" style="resizable=0;html=1;whiteSpace=wrap;align=right;verticalAlign=bottom;" parent="AyHtlCkVcT6NiHZTZ-Vk-182" connectable="0" vertex="1">
          <mxGeometry x="1" relative="1" as="geometry">
            <mxPoint x="15" y="20" as="offset" />
          </mxGeometry>
        </mxCell>
        <mxCell id="AyHtlCkVcT6NiHZTZ-Vk-184" value="" style="shape=link;html=1;rounded=0;entryX=0;entryY=0.5;entryDx=0;entryDy=0;exitX=1;exitY=0.5;exitDx=0;exitDy=0;" parent="1" source="AyHtlCkVcT6NiHZTZ-Vk-55" target="AyHtlCkVcT6NiHZTZ-Vk-61" edge="1">
          <mxGeometry relative="1" as="geometry">
            <mxPoint x="330" y="800" as="sourcePoint" />
            <mxPoint x="490" y="800" as="targetPoint" />
          </mxGeometry>
        </mxCell>
        <mxCell id="AyHtlCkVcT6NiHZTZ-Vk-185" value="N" style="resizable=0;html=1;whiteSpace=wrap;align=right;verticalAlign=bottom;" parent="AyHtlCkVcT6NiHZTZ-Vk-184" connectable="0" vertex="1">
          <mxGeometry x="1" relative="1" as="geometry" />
        </mxCell>
        <mxCell id="P9YCgDj0tiGXcgQnUHJ7-1" value="AUTHORSHIP" style="shape=rhombus;perimeter=rhombusPerimeter;whiteSpace=wrap;html=1;align=center;" vertex="1" parent="1">
          <mxGeometry x="110" y="480" width="120" height="60" as="geometry" />
        </mxCell>
        <mxCell id="P9YCgDj0tiGXcgQnUHJ7-8" value="" style="shape=link;html=1;rounded=0;entryX=0.5;entryY=0;entryDx=0;entryDy=0;exitX=0.5;exitY=1;exitDx=0;exitDy=0;" edge="1" parent="1" source="AyHtlCkVcT6NiHZTZ-Vk-50" target="P9YCgDj0tiGXcgQnUHJ7-1">
          <mxGeometry relative="1" as="geometry">
            <mxPoint x="290" y="550" as="sourcePoint" />
            <mxPoint x="450" y="550" as="targetPoint" />
          </mxGeometry>
        </mxCell>
        <mxCell id="P9YCgDj0tiGXcgQnUHJ7-9" value="N" style="resizable=0;html=1;whiteSpace=wrap;align=right;verticalAlign=bottom;" connectable="0" vertex="1" parent="P9YCgDj0tiGXcgQnUHJ7-8">
          <mxGeometry x="1" relative="1" as="geometry">
            <mxPoint x="-10" y="-10" as="offset" />
          </mxGeometry>
        </mxCell>
        <mxCell id="P9YCgDj0tiGXcgQnUHJ7-10" value="" style="shape=link;html=1;rounded=0;entryX=0;entryY=0.5;entryDx=0;entryDy=0;exitX=0.5;exitY=1;exitDx=0;exitDy=0;" edge="1" parent="1" source="P9YCgDj0tiGXcgQnUHJ7-1" target="AyHtlCkVcT6NiHZTZ-Vk-54">
          <mxGeometry relative="1" as="geometry">
            <mxPoint x="330" y="570" as="sourcePoint" />
            <mxPoint x="490" y="570" as="targetPoint" />
          </mxGeometry>
        </mxCell>
        <mxCell id="P9YCgDj0tiGXcgQnUHJ7-11" value="M" style="resizable=0;html=1;whiteSpace=wrap;align=right;verticalAlign=bottom;" connectable="0" vertex="1" parent="P9YCgDj0tiGXcgQnUHJ7-10">
          <mxGeometry x="1" relative="1" as="geometry">
            <mxPoint x="-100" y="-70" as="offset" />
          </mxGeometry>
        </mxCell>
        <mxCell id="P9YCgDj0tiGXcgQnUHJ7-13" value="AUTHORSHIP_ID" style="ellipse;whiteSpace=wrap;html=1;align=center;fontStyle=4;" vertex="1" parent="1">
          <mxGeometry x="-20" y="540" width="100" height="40" as="geometry" />
        </mxCell>
        <mxCell id="P9YCgDj0tiGXcgQnUHJ7-14" value="" style="endArrow=none;html=1;rounded=0;exitX=0;exitY=0.5;exitDx=0;exitDy=0;entryX=0.5;entryY=0;entryDx=0;entryDy=0;" edge="1" parent="1" source="P9YCgDj0tiGXcgQnUHJ7-1" target="P9YCgDj0tiGXcgQnUHJ7-13">
          <mxGeometry relative="1" as="geometry">
            <mxPoint x="520" y="720" as="sourcePoint" />
            <mxPoint x="680" y="720" as="targetPoint" />
          </mxGeometry>
        </mxCell>
        <mxCell id="P9YCgDj0tiGXcgQnUHJ7-18" value="" style="endArrow=none;html=1;rounded=0;exitX=0;exitY=0.5;exitDx=0;exitDy=0;entryX=1;entryY=0.5;entryDx=0;entryDy=0;" edge="1" parent="1" source="AyHtlCkVcT6NiHZTZ-Vk-60" target="AyHtlCkVcT6NiHZTZ-Vk-56">
          <mxGeometry relative="1" as="geometry">
            <mxPoint x="560" y="680" as="sourcePoint" />
            <mxPoint x="720" y="680" as="targetPoint" />
          </mxGeometry>
        </mxCell>
        <mxCell id="P9YCgDj0tiGXcgQnUHJ7-19" value="1" style="resizable=0;html=1;whiteSpace=wrap;align=right;verticalAlign=bottom;" connectable="0" vertex="1" parent="P9YCgDj0tiGXcgQnUHJ7-18">
          <mxGeometry x="1" relative="1" as="geometry">
            <mxPoint x="30" as="offset" />
          </mxGeometry>
        </mxCell>
        <mxCell id="P9YCgDj0tiGXcgQnUHJ7-20" value="" style="endArrow=none;html=1;rounded=0;entryX=0.5;entryY=1;entryDx=0;entryDy=0;exitX=0.5;exitY=0;exitDx=0;exitDy=0;" edge="1" parent="1" source="AyHtlCkVcT6NiHZTZ-Vk-58" target="AyHtlCkVcT6NiHZTZ-Vk-51">
          <mxGeometry relative="1" as="geometry">
            <mxPoint x="510" y="580" as="sourcePoint" />
            <mxPoint x="670" y="580" as="targetPoint" />
          </mxGeometry>
        </mxCell>
        <mxCell id="P9YCgDj0tiGXcgQnUHJ7-21" value="1" style="resizable=0;html=1;whiteSpace=wrap;align=right;verticalAlign=bottom;" connectable="0" vertex="1" parent="P9YCgDj0tiGXcgQnUHJ7-20">
          <mxGeometry x="1" relative="1" as="geometry">
            <mxPoint x="15" y="50" as="offset" />
          </mxGeometry>
        </mxCell>
      </root>
    </mxGraphModel>
  </diagram>
</mxfile>
